<?xml version="1.0" encoding="UTF-8"?>
<svg version="1.1" xmlns="http://www.w3.org/2000/svg" width="1024" height="1024">
    <path
        d="M0 0 C337.92 0 675.84 0 1024 0 C1024 337.92 1024 675.84 1024 1024 C686.08 1024 348.16 1024 0 1024 C0 686.08 0 348.16 0 0 Z "
        fill="transparent" transform="translate(0,0)" />
    <path
        d="M0 0 C0.10360961 6.80528339 0.17236137 13.61035556 0.21972656 20.41625977 C0.23952471 22.71907138 0.26657025 25.02183502 0.30175781 27.32446289 C0.61643834 48.48672849 -1.49593395 68.95623648 -7.25 89.375 C-7.54592041 90.4460498 -7.84184082 91.51709961 -8.14672852 92.62060547 C-10.96005054 102.45658438 -14.62022003 111.76483653 -19 121 C-19.32613281 121.6923877 -19.65226563 122.38477539 -19.98828125 123.09814453 C-22.21900226 127.78954634 -24.57118906 132.40839075 -27 137 C-27.50370117 137.9595459 -27.50370117 137.9595459 -28.01757812 138.93847656 C-36.10881119 154.22276976 -45.7928314 168.81884147 -57 182 C-57.87513927 183.04806081 -58.7501281 184.09624724 -59.625 185.14453125 C-70.30562594 197.85188611 -81.44961608 210.11341493 -94 221 C-95.81520686 222.66371815 -97.62760448 224.3305054 -99.4375 226 C-103.82940804 229.99320131 -108.32407818 233.81067703 -112.9453125 237.53515625 C-115.1831158 239.34085175 -117.40481899 241.15979312 -119.6171875 242.99609375 C-128.71271928 250.51676058 -138.0840745 257.53344689 -147.70458984 264.36621094 C-151.54583734 267.10027052 -155.36627114 269.86306502 -159.1875 272.625 C-159.93829834 273.16713135 -160.68909668 273.7092627 -161.46264648 274.26782227 C-167.99415718 278.98727823 -174.49868146 283.74265058 -180.98828125 288.51953125 C-183.18920802 290.13924241 -185.39149693 291.75709269 -187.59375 293.375 C-195.74352778 299.3667292 -203.87057024 305.38606332 -211.95214844 311.46948242 C-217.0036207 315.26683484 -222.09192215 319.01212546 -227.1875 322.75 C-234.01435564 327.76155797 -240.77431901 332.85355349 -247.5 338 C-254.27264991 343.18004043 -261.07338574 348.31664129 -267.9375 353.375 C-268.64519531 353.89707031 -269.35289062 354.41914062 -270.08203125 354.95703125 C-277.00585431 360.04211009 -284.00782709 365.00559078 -291 370 C-226.32 370 -161.64 370 -95 370 C-88.98797501 351.96392504 -93.35200802 332.00843325 -93 313 C-56.37 313 -19.74 313 18 313 C18.44333338 356.81387631 18.44333338 356.81387631 18.53710938 375.171875 C18.60238534 387.84880509 18.67912662 400.52493108 18.82983398 413.20117188 C18.93954183 422.4332847 19.01045579 431.66474537 19.03497344 440.89749193 C19.04930421 445.78570834 19.08292813 450.67205929 19.16303062 455.55967712 C19.23786549 460.16330533 19.26069703 464.76430581 19.24418449 469.3684845 C19.24720361 471.05522972 19.26899484 472.74206538 19.31126022 474.42828369 C19.61423654 487.14261017 19.61423654 487.14261017 15.63155556 491.72520447 C12.83670774 493.79372013 10.09468308 495.42502576 7 497 C5.43513761 497.9612227 3.87525812 498.93069061 2.32421875 499.9140625 C0.78122021 500.82209716 -0.76443655 501.72562745 -2.3125 502.625 C-9.50348042 506.87130998 -16.59640338 511.24007938 -23.625 515.75 C-31.75901228 520.96437128 -39.95028754 526.07522279 -48.1875 531.125 C-55.96543746 535.89411732 -63.72724178 540.68458153 -71.4375 545.5625 C-72.20271973 546.04638184 -72.96793945 546.53026367 -73.75634766 547.02880859 C-77.02736308 549.10153841 -80.29134471 551.18390416 -83.5390625 553.29296875 C-84.53679687 553.93878906 -85.53453125 554.58460938 -86.5625 555.25 C-87.38878906 555.79140625 -88.21507812 556.3328125 -89.06640625 556.890625 C-91 558 -91 558 -93 558 C-93.00879936 556.89245865 -93.00879936 556.89245865 -93.01777649 555.76254272 C-93.07578911 548.7887618 -93.14791485 541.81525263 -93.23571491 534.84178734 C-93.28035629 531.25701541 -93.31962566 527.67235549 -93.34643555 524.08740234 C-93.37253144 520.62476248 -93.41297699 517.16255507 -93.46318626 513.70018387 C-93.48787932 511.74279832 -93.49788361 509.78524523 -93.50764465 507.82772827 C-93.53733589 506.02654037 -93.53733589 506.02654037 -93.56762695 504.18896484 C-93.57873001 503.13639496 -93.58983307 502.08382507 -93.60127258 500.99935913 C-94.06979416 497.47498531 -95.18364485 495.04134773 -97 492 C-99.99512569 490.50243716 -103.06716724 490.85669952 -106.35199928 490.8613348 C-107.122517 490.85849258 -107.89303471 490.85565036 -108.68690145 490.85272202 C-111.29596772 490.84433056 -113.90498984 490.84310334 -116.5140686 490.84178162 C-118.39257996 490.83721929 -120.2710903 490.83221976 -122.14959943 490.82681805 C-127.33279459 490.81318999 -132.51598315 490.80580513 -137.69919157 490.79939139 C-143.2806752 490.79140787 -148.86214504 490.77770309 -154.44361877 490.76467896 C-164.12094314 490.74288705 -173.79826888 490.72475252 -183.47560501 490.70907402 C-197.4675583 490.68640005 -211.45949632 490.65825384 -225.45143668 490.62875474 C-248.15023519 490.58104844 -270.84903929 490.53778399 -293.54785156 490.49731445 C-315.60286953 490.45798219 -337.65788195 490.41656395 -359.71289062 490.37231445 C-360.39242301 490.37095192 -361.0719554 490.36958939 -361.77207968 490.36818558 C-368.59606748 490.3545005 -375.4200552 490.34077293 -382.24404286 490.32701423 C-439.49601693 490.21158534 -496.74800289 490.10332957 -554 490 C-553.85759381 487.45725299 -553.71070422 484.91489494 -553.5612793 482.37255859 C-553.52179924 481.65937973 -553.48231918 480.94620087 -553.44164276 480.21141052 C-553.08371638 474.21719061 -552.17092741 468.47684976 -550.8125 462.625 C-550.59037842 461.64950195 -550.36825684 460.67400391 -550.1394043 459.66894531 C-543.59739344 431.80794324 -530.90216784 408.64647656 -511 388 C-510.27127686 387.24058105 -510.27127686 387.24058105 -509.52783203 386.46582031 C-502.41765615 379.09084564 -495.09708396 372.29660172 -487 366 C-485.671612 364.95476124 -484.3435083 363.90916111 -483.015625 362.86328125 C-474.32335285 356.04114105 -465.52969593 349.36099134 -456.67626953 342.74975586 C-450.56610697 338.18507732 -444.49520479 333.57150459 -438.4375 328.9375 C-431.77912693 323.84630907 -425.07679133 318.82453237 -418.3125 313.875 C-411.36674398 308.79198579 -404.54852117 303.56916255 -397.77758789 298.25610352 C-391.55223813 293.3879713 -385.20344855 288.70278283 -378.82421875 284.0390625 C-374.14580801 280.60925561 -369.53763112 277.11370623 -365 273.5 C-358.86818957 268.61818064 -352.5771193 263.9728615 -346.25366211 259.34301758 C-339.38714144 254.30766095 -332.61942937 249.15188022 -325.8671875 243.96484375 C-319.73446511 239.25466006 -313.53297903 234.63678347 -307.3359375 230.01171875 C-301.74488708 225.83024301 -296.18216017 221.61464061 -290.63549805 217.37451172 C-282.11302712 210.86100258 -273.54290211 204.42438572 -264.89111328 198.08374023 C-258.93880961 193.71327653 -253.06005649 189.25413025 -247.2043457 184.75537109 C-240.49918473 179.60551883 -233.73770079 174.53298993 -226.96630859 169.47070312 C-223.72499611 167.04635914 -220.4876906 164.61667753 -217.25 162.1875 C-215.92189476 161.1913799 -214.59376931 160.19528676 -213.265625 159.19921875 C-212.58048828 158.68536621 -211.89535156 158.17151367 -211.18945312 157.64208984 C-204.109375 152.33203125 -204.109375 152.33203125 -201.56958008 150.42724609 C-199.85319339 149.13991531 -198.1368851 147.85248001 -196.4206543 146.56494141 C-192.58561715 143.68802088 -188.74992719 140.81200651 -184.91015625 137.94140625 C-176.40877574 131.58250211 -167.95337957 125.16522646 -159.51391602 118.72436523 C-153.93809193 114.47057504 -148.34171078 110.24729033 -142.72265625 106.05078125 C-139.77420928 103.82992808 -136.85553063 101.57315202 -133.9375 99.3125 C-128.6856237 95.24930687 -123.35533051 91.30055986 -118 87.375 C-111.10927881 82.32319023 -104.28455925 77.19345957 -97.5 72 C-89.99357072 66.25560113 -82.43085479 60.59756804 -74.81030273 55.00561523 C-67.8894931 49.92668652 -61.01842191 44.78403511 -54.15869141 39.62304688 C-50.02552008 36.5154555 -45.88729182 33.41460203 -41.75 30.3125 C-40.04164742 29.03127566 -38.33331351 27.75002643 -36.625 26.46875 C-25.75 18.3125 -25.75 18.3125 -23.01953125 16.265625 C-20.61989486 14.46512163 -18.22170341 12.66274023 -15.82421875 10.859375 C-14.73512207 10.0408606 -14.73512207 10.0408606 -13.62402344 9.20581055 C-12.19579741 8.13240842 -10.76804201 7.05837973 -9.34082031 5.98364258 C-8.69081055 5.49532959 -8.04080078 5.0070166 -7.37109375 4.50390625 C-6.79286865 4.06892822 -6.21464355 3.6339502 -5.61889648 3.18579102 C-1.26950793 0 -1.26950793 0 0 0 Z "
        fill="#1EAC45" transform="translate(768,300)" />
    <path
        d="M0 0 C0.79921875 0.32693848 1.5984375 0.65387695 2.421875 0.99072266 C51.0376806 21.12309341 88.37724667 58.08145943 108.625 106.5 C118.95154562 132.78575249 118.95154562 132.78575249 118 143 C116.64916992 144.63061523 116.64916992 144.63061523 114.73046875 146.05859375 C114.01656982 146.60177246 113.3026709 147.14495117 112.56713867 147.70458984 C111.78185791 148.2764502 110.99657715 148.84831055 110.1875 149.4375 C108.96994019 150.35329834 108.96994019 150.35329834 107.7277832 151.28759766 C105.16413089 153.20892017 102.58421186 155.10644719 100 157 C98.43715967 158.15448735 96.87464932 159.30942155 95.3125 160.46484375 C92.98498871 162.18307952 90.65551799 163.89840992 88.32104492 165.60717773 C82.32433248 169.99916188 76.40170247 174.48134796 70.5 179 C62.93308503 184.79266647 55.3026959 190.48802232 47.61694336 196.12182617 C41.99645125 200.24787966 36.45303287 204.46051021 30.94140625 208.73046875 C27.17589227 211.63586532 23.36554268 214.47871282 19.5546875 217.32421875 C16.71298599 219.45507525 13.89029929 221.61002908 11.0703125 223.76953125 C-5.10849763 236.1566166 -5.10849763 236.1566166 -12 241 C-18.77041475 245.75893685 -25.32437449 250.78989751 -31.89257812 255.82275391 C-37.8819121 260.40530588 -43.91724768 264.91730272 -50 269.375 C-56.23056314 273.94268492 -62.3912512 278.57898849 -68.5 283.30859375 C-78.56674598 291.07684577 -88.72645838 298.74330212 -99.125 306.0625 C-106.92749029 311.56197106 -114.40419873 317.47644019 -121.91357422 323.36621094 C-129.43421078 329.25529353 -137.03399531 335.03528369 -144.6875 340.75 C-152.86082516 346.85496944 -160.90430944 353.1214525 -168.94580078 359.3984375 C-177.12657856 365.77660511 -185.38378911 372.04500641 -193.6965332 378.24951172 C-198.95285955 382.18532643 -204.13974699 386.20518926 -209.3125 390.25 C-214.81832097 394.55483452 -220.36948475 398.75638417 -226.05078125 402.828125 C-230.78394729 406.31374131 -235.39392858 409.95655224 -240.02416992 413.57714844 C-245.7374286 418.03726452 -251.50789973 422.41252967 -257.31787109 426.74560547 C-261.34600548 429.75193009 -265.34009127 432.7953801 -269.3125 435.875 C-274.54405276 439.91815065 -279.85278875 443.84424844 -285.1875 447.75 C-292.36443194 453.00840292 -299.42516388 458.39479728 -306.42919922 463.88085938 C-312.00424564 468.24276588 -317.642722 472.51108597 -323.31542969 476.74487305 C-328.44849155 480.57802859 -333.53427898 484.46814196 -338.60546875 488.3828125 C-342.47761078 491.3716329 -346.36361103 494.34224199 -350.25 497.3125 C-350.95793701 497.85374512 -351.66587402 498.39499023 -352.39526367 498.95263672 C-356.15824525 501.82923838 -359.92241508 504.70427696 -363.6875 507.578125 C-364.8336377 508.45343872 -364.8336377 508.45343872 -366.00292969 509.34643555 C-367.46154401 510.46036428 -368.920508 511.57383536 -370.37988281 512.68676758 C-373.9541655 515.41695363 -377.50146047 518.17269189 -381 521 C-381.66 520.67 -382.32 520.34 -383 520 C-367.24457356 497.64070333 -350.04909945 477.01830704 -330.75 457.625 C-329.77595215 456.64394287 -329.77595215 456.64394287 -328.78222656 455.64306641 C-324.35189544 451.22736056 -319.75348486 447.06432696 -315 443 C-314.443125 442.52143555 -313.88625 442.04287109 -313.3125 441.54980469 C-307.22059211 436.33192053 -301.06885359 431.19983856 -294.78125 426.21875 C-291.92460511 423.93985352 -289.09319749 421.63215973 -286.26342773 419.32006836 C-279.74187483 413.99498994 -273.16951398 408.76370954 -266.47265625 403.66015625 C-263.86021594 401.66727912 -261.26874055 399.64924811 -258.68359375 397.62109375 C-251.21899317 391.76826774 -243.72786614 386.00821707 -235.97460938 380.54248047 C-226.65175512 373.95544642 -217.75404037 366.8261154 -208.86523438 359.67016602 C-204.15469547 355.89057077 -199.3738699 352.21254255 -194.5625 348.5625 C-188.93212869 344.29008308 -183.39958042 339.92291704 -177.9375 335.4375 C-168.53021621 327.72744219 -158.78213604 320.51022026 -148.98046875 313.3125 C-148.13137939 312.68851318 -147.28229004 312.06452637 -146.4074707 311.42163086 C-144.76311362 310.21447968 -143.11720426 309.00943909 -141.46948242 307.80688477 C-138.08060791 305.32349266 -134.75479276 302.83219562 -131.5703125 300.08984375 C-129 298 -129 298 -127 298 C-127 297.34 -127 296.68 -127 296 C-125.45537872 294.63376364 -123.84839824 293.337826 -122.21875 292.07421875 C-115.92531787 287.03282506 -110.17620084 281.53176045 -104.5 275.8125 C-103.99731598 275.30799316 -103.49463196 274.80348633 -102.97671509 274.28369141 C-95.35788761 266.61839382 -88.22392824 258.85300137 -82 250 C-81.59072266 249.44038574 -81.18144531 248.88077148 -80.75976562 248.30419922 C-64.64365045 226.24634633 -55.31236302 202.53615076 -58 175 C-60.87216755 157.93719724 -72.00107549 142.38869312 -85.79711914 132.26757812 C-110.59343906 114.99614231 -143.36943672 107.94893381 -173.24462891 112.87573242 C-176.5231251 113.48760662 -179.754305 114.22989111 -183 115 C-184.26585937 115.29003906 -185.53171875 115.58007812 -186.8359375 115.87890625 C-213.79948073 122.52250092 -236.11216835 137.61685198 -251 161 C-261.08254565 177.79573428 -263.15146691 197.34226355 -258.97265625 216.234375 C-256.38858688 226.23856323 -252.90557593 234.86433177 -247.16015625 243.4765625 C-246 246 -246 246 -246.39453125 247.9921875 C-248.76608015 250.95806617 -251.63941303 253.19130724 -254.625 255.5 C-255.29015625 256.02335937 -255.9553125 256.54671875 -256.640625 257.0859375 C-262.03297797 261.30691792 -267.51378723 265.40874138 -273.00952148 269.49365234 C-278.28739006 273.42849472 -283.43734383 277.50472562 -288.56201172 281.63623047 C-294.63165566 286.52562132 -300.80667682 291.26888291 -307 296 C-309.06329482 297.58229743 -311.12578081 299.16565008 -313.1875 300.75 C-313.9760437 301.35569824 -313.9760437 301.35569824 -314.78051758 301.97363281 C-318.70540457 304.99268726 -322.61203491 308.03460441 -326.51416016 311.08300781 C-328.80720598 312.87087231 -331.10622251 314.65081723 -333.40625 316.4296875 C-336.4720253 318.8018897 -339.50882932 321.20567728 -342.53125 323.6328125 C-343.95792899 324.75572224 -345.38499543 325.87813996 -346.8125 327 C-347.46387939 327.5347998 -348.11525879 328.06959961 -348.78637695 328.62060547 C-350.64453125 330.0625 -350.64453125 330.0625 -354 332 C-358.55236074 331.3206477 -362.03515169 327.89684486 -365.5625 325.0625 C-366.17311279 324.57595947 -366.78372559 324.08941895 -367.4128418 323.58813477 C-401.94834069 295.76550983 -424.98320305 256.54630803 -430.3125 212.25 C-435.43313078 161.93399018 -420.00375609 113.5529529 -388.5 74.1875 C-387.01576156 72.44478556 -385.51494467 70.71608858 -384 69 C-383.56252441 68.49694336 -383.12504883 67.99388672 -382.67431641 67.47558594 C-335.42471866 13.37750635 -256.65475737 -14.21011803 -187 -22 C-185.7941626 -22.15227051 -185.7941626 -22.15227051 -184.56396484 -22.30761719 C-124.47085052 -29.77948118 -56.22046083 -23.27728551 0 0 Z "
        fill="#0E2237" transform="translate(645,135)" />
    <path
        d="M0 0 C1 2 1 2 0.1875 4.8125 C-2.46153846 11.92307692 -2.46153846 11.92307692 -4 15 C-4.66 15 -5.32 15 -6 15 C-5.54979057 9.14727744 -2.96160773 4.91779881 0 0 Z "
        fill="#14A331" transform="translate(231,724)" />
    <path
        d="M0 0 C0.33 0.66 0.66 1.32 1 2 C1.66 2.33 2.32 2.66 3 3 C0.69 4.98 -1.62 6.96 -4 9 C-4.66 8.67 -5.32 8.34 -6 8 C-4.02 5.36 -2.04 2.72 0 0 Z "
        fill="#0E1422" transform="translate(268,647)" />
    <path
        d="M0 0 C1.32 0.66 2.64 1.32 4 2 C1.03 4.475 1.03 4.475 -2 7 C-2.66 6.67 -3.32 6.34 -4 6 C-1.125 1.125 -1.125 1.125 0 0 Z "
        fill="#081526" transform="translate(276,641)" />
    <path
        d="M0 0 C0.66 0.33 1.32 0.66 2 1 C-2.30769231 6.78461538 -2.30769231 6.78461538 -5.8125 7.875 C-6.8953125 7.936875 -6.8953125 7.936875 -8 8 C-5.58443874 4.80800833 -3.31996462 2.25283313 0 0 Z "
        fill="#060F1E" transform="translate(352,560)" />
    <path
        d="M0 0 C0.66 0.33 1.32 0.66 2 1 C-1.32307692 5.8 -1.32307692 5.8 -4.75 6.8125 C-5.4925 6.874375 -6.235 6.93625 -7 7 C-4.66666667 4.66666667 -2.33333333 2.33333333 0 0 Z "
        fill="#12A22B" transform="translate(286,662)" />
    <path
        d="M0 0 C0.93423645 3.01031744 1.04449911 3.86650268 0 7 C-1.32 7 -2.64 7 -4 7 C-4.33 6.01 -4.66 5.02 -5 4 C-4.01 3.67 -3.02 3.34 -2 3 C-1.34 2.01 -0.68 1.02 0 0 Z "
        fill="#15283B" transform="translate(273,642)" />
</svg>